<svg xmlns="http://www.w3.org/2000/svg" width="860" height="430" viewBox="0 0 860 430" font-family="-apple-system,Segoe UI,Helvetica,Arial,sans-serif">
<text x="70" y="24" font-size="15" font-weight="600" fill="#1f2328">Triage on MT-Bench — cost reduction vs quality</text>
<text x="70" y="42" font-size="12" fill="#57606a">free Ministral-8B → GPT-4o (headline pair) · 80 questions · LLM-judge · one point per escalation threshold</text>
<line x1="70" y1="376.0" x2="836" y2="376.0" stroke="#d8dee4" stroke-width="1"/>
<text x="62" y="380.0" font-size="11" text-anchor="end" fill="#57606a">94%</text>
<line x1="70" y1="298.0" x2="836" y2="298.0" stroke="#d8dee4" stroke-width="1"/>
<text x="62" y="302.0" font-size="11" text-anchor="end" fill="#57606a">96%</text>
<line x1="70" y1="220.0" x2="836" y2="220.0" stroke="#d8dee4" stroke-width="1"/>
<text x="62" y="224.0" font-size="11" text-anchor="end" fill="#57606a">98%</text>
<line x1="70" y1="142.0" x2="836" y2="142.0" stroke="#d8dee4" stroke-width="1"/>
<text x="62" y="146.0" font-size="11" text-anchor="end" fill="#57606a">100%</text>
<line x1="70" y1="64.0" x2="836" y2="64.0" stroke="#d8dee4" stroke-width="1"/>
<text x="62" y="68.0" font-size="11" text-anchor="end" fill="#57606a">102%</text>
<text x="70.0" y="394" font-size="11" text-anchor="middle" fill="#57606a">20%</text>
<text x="163.41463414634146" y="394" font-size="11" text-anchor="middle" fill="#57606a">30%</text>
<text x="256.8292682926829" y="394" font-size="11" text-anchor="middle" fill="#57606a">40%</text>
<text x="350.2439024390244" y="394" font-size="11" text-anchor="middle" fill="#57606a">50%</text>
<text x="443.6585365853658" y="394" font-size="11" text-anchor="middle" fill="#57606a">60%</text>
<text x="537.0731707317073" y="394" font-size="11" text-anchor="middle" fill="#57606a">70%</text>
<text x="630.4878048780488" y="394" font-size="11" text-anchor="middle" fill="#57606a">80%</text>
<text x="723.9024390243902" y="394" font-size="11" text-anchor="middle" fill="#57606a">90%</text>
<text x="817.3170731707316" y="394" font-size="11" text-anchor="middle" fill="#57606a">100%</text>
<line x1="70" y1="376.0" x2="836" y2="376.0" stroke="#8c959f" stroke-width="1"/>
<text x="453.0" y="416" font-size="12" text-anchor="middle" fill="#57606a">cost reduction vs always-paid →</text>
<text x="16" y="220.0" font-size="12" text-anchor="middle" fill="#57606a" transform="rotate(-90 16 220.0)">quality vs paid model →</text>
<line x1="70" y1="337.0" x2="836" y2="337.0" stroke="#8c959f" stroke-width="1" stroke-dasharray="5 4"/>
<text x="76" y="331.0" font-size="11" fill="#57606a">95% quality line</text>
<path d="M 128.9 142.0 L 195.2 208.3 L 346.5 212.2 L 482.0 212.2 L 645.4 223.9 L 714.6 188.8 L 742.6 196.6 L 773.4 130.3 L 817.3 270.7" fill="none" stroke="#4269d0" stroke-width="2" stroke-linejoin="round"/>
<circle cx="128.9" cy="142.0" r="4" fill="#4269d0"/>
<circle cx="195.2" cy="208.3" r="4" fill="#4269d0"/>
<circle cx="346.5" cy="212.2" r="4" fill="#4269d0"/>
<circle cx="482.0" cy="212.2" r="4" fill="#4269d0"/>
<circle cx="645.4" cy="223.9" r="4" fill="#4269d0"/>
<circle cx="714.6" cy="188.8" r="4" fill="#4269d0"/>
<circle cx="742.6" cy="196.6" r="4" fill="#4269d0"/>
<circle cx="773.4" cy="130.3" r="4" fill="#4269d0"/>
<circle cx="817.3" cy="270.7" r="4" fill="#4269d0"/>
<circle cx="773.4121951219512" cy="130.30000000000013" r="6.5" fill="none" stroke="#4269d0" stroke-width="2"/>
<text x="763.4121951219512" y="118.30000000000013" font-size="11.5" font-weight="600" text-anchor="end" fill="#1f2328">95.3% saved · 100.3% quality</text>
</svg>